<svg version="1.2" id="logo" xmlns="http://www.w3.org/2000/svg" x="0px" y="0px" width="2000px" height="2000px" viewBox="0 0 2000 2000"><path id="outer" fill="#ffffff" d="M1900,1900c-49.403-96.833-143.308-305.174-251.941-571.583 C1288.491,446.629,1679,901,1242.844,1308.85C783-403,1216-89,771.796,978.817c-474.047-381.039-55.738-834.359-444.044,278.736 C224.632,1553.151,105.852,1890.945,100,1900H1900z"></path><path id="inner" fill="#1c68c4" d="M988.41,671.412c48.077,238.086,106.93,473.793,157.857,663.38l43.213,160.867l121.664-113.769 c68.777-64.314,125.157-136.004,167.863-212.414c22.566,61.465,48.112,127.197,76.453,196.699 c65.105,159.661,131.714,314.649,186.093,433.824H243.157c8.481-23.824,18.005-50.682,28.525-80.439 c39.457-111.611,92.901-263.991,150.489-429.068c51.797-148.478,94.156-282.946,126.248-400.333 c43.835,59.873,97.763,115.99,160.728,166.601l103.819,83.449l51.161-122.983C903.926,921.551,948.452,803.401,988.41,671.412"></path></svg>
